<svg width="893.74" height="308.391" viewBox="0 0 670.305 231.293" version="1.2" xmlns:xlink="http://www.w3.org/1999/xlink" xmlns="http://www.w3.org/2000/svg"><defs><symbol overflow="visible" id="a"><path style="stroke:none" d="M15.781-6.938 18.453 0h3.453L13.36-22.063H9.453L.938 0H4.28l2.594-6.938ZM7.547-9.171 10-15.547a53.473 53.473 0 0 0 1.266-4h.078c.375 1.281.75 2.594 1.312 4.031l2.453 6.344zm0 0"/></symbol><symbol overflow="visible" id="b"><path style="stroke:none" d="M2.797-22.063v13c0 6.844 3.86 9.422 9 9.422 5.422 0 9.484-2.78 9.484-9.562v-12.86H18V-9c0 4.875-2.375 7.031-6.094 7.031-3.344 0-5.844-2.093-5.844-7.031v-13.063zm0 0"/></symbol><symbol overflow="visible" id="c"><path style="stroke:none" d="M7.594 0h3.265v-19.64h7.672v-2.422H-.03v2.421h7.625zm0 0"/></symbol><symbol overflow="visible" id="d"><path style="stroke:none" d="M12.984-22.422c-6.703 0-11.64 4.578-11.64 11.594C1.344-4.156 5.984.359 12.609.359c6.407 0 11.641-4.03 11.641-11.625 0-6.546-4.422-11.156-11.266-11.156zm-.156 2.328c5.406 0 8 4.578 8 8.969 0 5-2.89 9.156-8.031 9.156-5.094 0-8-4.218-8-8.937 0-4.844 2.687-9.188 8.031-9.188zm0 0"/></symbol><symbol overflow="visible" id="e"><path style="stroke:none" d="M2.828-.063c1.64.157 3.578.266 5.875.266 4.875 0 8.75-1.125 11.094-3.187 2.344-2.032 3.61-4.97 3.61-8.579 0-3.562-1.313-6.109-3.548-7.921-2.187-1.797-5.5-2.75-10.156-2.75-2.562 0-4.906.203-6.875.468zm3.235-19.609c.859-.172 2.125-.297 3.796-.297 6.844 0 10.188 3.313 10.157 8.516 0 5.953-3.766 9.36-10.672 9.36-1.266 0-2.469-.032-3.281-.173Zm0 0"/></symbol><symbol overflow="visible" id="f"><path style="stroke:none" d="M15.813-12.703h-9.75v-6.969h10.312v-2.39H2.828V0h14.094v-2.39H6.062v-7.954h9.75zm0 0"/></symbol><symbol overflow="visible" id="g"><path style="stroke:none" d="M24.594 0h3.156l-1.563-22.063h-4.125L17.595-11.39c-1.11 2.782-2 5.204-2.64 7.438h-.11c-.625-2.297-1.485-4.719-2.531-7.438L8.03-22.062H3.906L2.156 0H5.25l.672-9.453c.219-3.313.406-7.016.484-9.766h.063c.718 2.625 1.718 5.469 2.906 8.578L13.438-.125h2.453l4.421-10.703c1.266-3.047 2.313-5.797 3.157-8.39h.125c-.047 2.75.172 6.452.36 9.53zm0 0"/></symbol><symbol overflow="visible" id="h"><path style="stroke:none" d="M2.828 0h13.953v-2.39H6.063v-19.672H2.828Zm0 0"/></symbol><symbol overflow="visible" id="i"><path style="stroke:none" d="M2.828-22.063V0h3.235v-22.063zm0 0"/></symbol><symbol overflow="visible" id="j"><path style="stroke:none" d="M1.11 0h18.312v-2.39H5.39v-.094l13.843-17.844v-1.735H2.312v2.391h12.72v.094L1.108-1.672Zm0 0"/></symbol><symbol overflow="visible" id="k"><path style="stroke:none" d="M5.875 0v-9.422c0-3.672-.078-6.328-.25-9.11l.11-.03c1.265 2.39 2.937 4.906 4.687 7.375L18.375 0h3.281v-22.063h-3.062v9.235c0 3.437.078 6.125.375 9.062l-.063.032c-1.203-2.25-2.656-4.579-4.515-7.172L6.359-22.062H2.83V0Zm0 0"/></symbol><symbol overflow="visible" id="l"><path style="stroke:none" d="m25.297-49.578 8.11 23.75 17.421-23.75h14.313L55.53 0H41.813l5.453-27.953-11.657 16.656h-9.937l-5.14-16.656L15.077 0H1.438l9.624-49.578zm0 0"/></symbol><symbol overflow="visible" id="m"><path style="stroke:none" d="M38.172-10.61c0 1.2.664 1.797 2 1.797 1.344 0 2.473-.226 3.39-.687l-.39 7.781C40.754.071 38.032.97 35 .97c-5.71 0-8.82-2-9.328-6-3.024 4-7.102 6-12.235 6-5.124 0-8.445-1.055-9.953-3.172C2.473-3.535 1.97-5.051 1.97-6.75c0-1.695.148-3.258.453-4.688l4.25-21.687h12.875l-3.563 18.313a13.498 13.498 0 0 0-.234 2.484c0 2.21 1.363 3.312 4.094 3.312 2.27 0 4.086-.71 5.453-2.14l4.328-21.969H42.5l-4.25 21.688a4.332 4.332 0 0 0-.078.828zm0 0"/></symbol><symbol overflow="visible" id="n"><path style="stroke:none" d="M15.75-10.61c0 1.2.664 1.797 2 1.797 1.344 0 2.473-.226 3.39-.687l-.39 7.781C18.332.071 15.61.97 12.578.97c-4.594 0-7.574-.965-8.937-2.89-.868-1.24-1.297-2.595-1.297-4.063 0-1.47.101-2.754.312-3.86l8.25-42.422h12.875l-7.953 40.828a4.332 4.332 0 0 0-.078.829zm0 0"/></symbol><symbol overflow="visible" id="o"><path style="stroke:none" d="M17.875.969C12.02.969 7.805-.223 5.235-2.61c-1.93-1.75-2.891-4.094-2.891-7.032 0-.968.101-2 .312-3.093l5.14-26.657 13.876-5.234-2.203 11.5h20.906l-1.89 9.719H17.577l-1.515 7.781c-.211.867-.313 1.64-.313 2.328 0 2.899 1.516 4.344 4.547 4.344 1.613 0 2.96-.617 4.047-1.86 1.093-1.238 1.843-2.89 2.25-4.953h12.562C37.04-4.609 29.946.97 17.875.97Zm0 0"/></symbol><symbol overflow="visible" id="p"><path style="stroke:none" d="M17.656-8.813c1.157 0 2.188-.226 3.094-.687l-.375 7.781C18 .071 15.297.97 12.265.97c-4.593 0-7.574-.965-8.937-2.89-.906-1.29-1.36-2.657-1.36-4.095 0-1.445.098-2.722.298-3.828l4.546-23.281h12.875l-4.234 21.688c-.055.28-.078.539-.078.765 0 1.242.758 1.86 2.281 1.86zm-9.328-35.53c0-2.938.719-5.083 2.156-6.438 1.446-1.352 3.68-2.032 6.704-2.032 4.25 0 6.375 1.7 6.375 5.094 0 2.899-.727 5.012-2.172 6.344-1.438 1.324-3.696 1.984-6.766 1.984-4.2 0-6.297-1.648-6.297-4.953zm0 0"/></symbol><symbol overflow="visible" id="q"><path style="stroke:none" d="M39.547-25.953c0 1.512-.508 2.906-1.516 4.187H25.61c.395-.27.594-.722.594-1.359 0-.645-.406-1.16-1.219-1.547-.804-.394-1.836-.594-3.093-.594-3.793 0-5.688 1.055-5.688 3.157 0 .836.707 1.433 2.125 1.797 1.414.367 3.133.664 5.156.89 2.02.23 4.04.563 6.063 1 2.02.438 3.734 1.305 5.14 2.594 1.415 1.281 2.126 3 2.126 5.156 0 3.813-1.684 6.711-5.047 8.688C28.41-.016 23.523.969 17.109.969 10.703.969 6.211.023 3.641-1.86 1.617-3.33.609-5.348.609-7.922c0-.726.07-1.484.22-2.266l12.655-.14c-.105.648.313 1.21 1.25 1.687.938.48 2.313.72 4.125.72 1.82 0 3.133-.173 3.938-.516.812-.344 1.219-.993 1.219-1.954 0-.644-.711-1.093-2.125-1.343-1.418-.258-3.149-.477-5.188-.657a59.629 59.629 0 0 1-6.14-.89c-2.043-.414-3.774-1.29-5.188-2.625-1.418-1.332-2.125-3.078-2.125-5.235 0-4.175 1.781-7.39 5.344-9.64 3.562-2.25 8.703-3.375 15.422-3.375 10.351 0 15.53 2.734 15.53 8.203zm0 0"/></symbol><symbol overflow="visible" id="r"><path style="stroke:none" d="M16.969.969c-10.5 0-15.75-3.305-15.75-9.922 0-.914.097-1.899.297-2.953l1.593-8.547c.852-4.406 3.082-7.79 6.688-10.156 3.613-2.364 8.406-3.547 14.375-3.547 10.144 0 15.219 3.492 15.219 10.468 0 1.012-.102 2.118-.297 3.313l-.922 4.875H15.078l-.312 1.594a9.15 9.15 0 0 0-.141 1.515c0 2.524 1.64 3.782 4.922 3.782 1.207 0 2.238-.344 3.094-1.032.863-.687 1.375-1.488 1.53-2.406l12.563.14C35.066-3.32 28.477.97 16.97.97zm9.093-20.657c.196-.78.297-1.503.297-2.171 0-.664-.328-1.344-.984-2.032-.656-.687-1.703-1.03-3.14-1.03-1.438 0-2.75.437-3.938 1.312-1.188.867-2.012 2.172-2.469 3.922zm0 0"/></symbol><symbol overflow="visible" id="s"><path style="stroke:none" d="M38.406-26.094c0 1.563-.293 3.078-.875 4.547-.586 1.469-1.152 2.547-1.703 3.235L35-17.36H23.562c1.258-1.051 1.891-2.36 1.891-3.922 0-.82-.293-1.492-.875-2.016-.586-.531-1.383-.797-2.39-.797-1.711 0-3.2.778-4.47 2.328L13.485 0H.61l6.438-33.125h11.969l-.907 4.625c2.875-3.719 6.36-5.578 10.453-5.578 3.282 0 5.739.715 7.375 2.14 1.645 1.418 2.47 3.368 2.47 5.844zm0 0"/></symbol><symbol overflow="visible" id="t"><path style="stroke:none" d="M40.078-33.125c.695 1.93 1.047 4.492 1.047 7.688 0 3.187-.43 6.25-1.281 9.187-.856 2.938-2.157 5.73-3.907 8.375-1.742 2.637-4.164 4.773-7.265 6.406C25.566.156 21.992.97 17.953.97 11.641.969 7.27-.203 4.843-2.547 3.228-4.109 2.423-6.492 2.423-9.703c0-1.52.203-3.242.61-5.172l3.562-18.25h12.875l-3.563 18.313c-.148.699-.219 1.32-.219 1.859 0 2.625 1.489 3.937 4.47 3.937 5.25 0 7.874-5.004 7.874-15.015 0-2.344-.203-4.938-.61-7.782l-.233-1.312Zm0 0"/></symbol><symbol overflow="visible" id="u"><path style="stroke:none" d="M16.969.969c-10.5 0-15.75-3.305-15.75-9.922 0-.914.097-1.899.297-2.953l1.593-8.547c.801-4.406 3.008-7.774 6.625-10.11 3.614-2.343 8.196-3.539 13.75-3.593 10.758 0 16.141 3.398 16.141 10.187 0 1.469-.195 2.793-.578 3.969-.375 1.168-.766 1.96-1.172 2.375l-.61.688H24.392c1.257-1.008 1.89-2.204 1.89-3.579 0-2.476-1.367-3.718-4.093-3.718-1.618 0-3.008.437-4.172 1.312-1.157.867-1.914 2.195-2.266 3.985l-.984 5.03c-.094.462-.141.9-.141 1.313 0 2.43 1.664 3.64 5 3.64a4.995 4.995 0 0 0 2.984-.952c.883-.645 1.407-1.36 1.563-2.14l12.562.14C35.066-3.32 28.477.969 16.97.969zm0 0"/></symbol><symbol overflow="visible" id="v"><path style="stroke:none" d="M2.281-14.547V0h2.61v-14.547zm0 0"/></symbol><symbol overflow="visible" id="w"><path style="stroke:none" d="M4.734 0v-6.219c0-2.422-.046-4.172-.203-6l.094-.031C5.641-10.672 6.985-9 8.406-7.39L14.812 0h2.641v-14.547H15v6.078c0 2.266.063 4.047.297 5.985l-.063.015c-.953-1.484-2.125-3.015-3.625-4.719l-6.484-7.359H2.281V0Zm0 0"/></symbol><symbol overflow="visible" id="x"><path style="stroke:none" d="M1.266-.719C2.344-.188 4.469.22 6.422.22c4.766 0 7.078-1.953 7.078-4.188 0-2.14-1.734-3.328-5.156-4.281-2.797-.781-4.031-1.453-4.031-2.813 0-.984 1.062-2.171 3.812-2.171 1.828 0 3.188.421 3.844.687l.719-1.531c-.891-.375-2.391-.719-4.47-.719-3.921 0-6.53 1.688-6.53 3.953 0 2.063 2.03 3.281 5.328 4.125 2.734.766 3.812 1.532 3.812 2.89 0 1.47-1.562 2.485-4.234 2.485-1.797 0-3.5-.422-4.672-.937zm0 0"/></symbol><symbol overflow="visible" id="y"><path style="stroke:none" d="M12.75-8.375H4.89v-4.61h8.313v-1.562H2.281V0h11.375v-1.578H4.891v-5.25h7.859Zm0 0"/></symbol><symbol overflow="visible" id="z"><path style="stroke:none" d="M19.828 0h2.547l-1.25-14.547h-3.328l-3.61 7.031c-.89 1.844-1.624 3.438-2.124 4.907h-.094c-.516-1.516-1.203-3.11-2.031-4.907l-3.454-7.03H3.156L1.734 0h2.5l.532-6.234c.187-2.188.328-4.625.39-6.438h.063c.578 1.719 1.375 3.61 2.343 5.656l3.266 6.922h1.985l3.562-7.047a74.288 74.288 0 0 0 2.563-5.53h.078c-.032 1.812.156 4.25.297 6.28zm0 0"/></symbol><symbol overflow="visible" id="B"><path style="stroke:none" d="M2.281 0h2.61v-5.828c.593.11 1.312.125 2.093.125 2.563 0 4.813-.531 6.188-1.594 1.015-.75 1.562-1.797 1.562-3.11 0-1.296-.671-2.359-1.78-3.046-1.188-.781-3.079-1.203-5.657-1.203-2.11 0-3.75.125-5.016.281zm2.61-13.016c.453-.093 1.312-.156 2.453-.156 2.89 0 4.781.922 4.781 2.844 0 2.015-1.922 3.11-5.078 3.11-.86 0-1.594-.032-2.156-.141zm0 0"/></symbol><symbol overflow="visible" id="C"><path style="stroke:none" d="M2.281 0h2.61v-6.313h2.453c2.375.079 3.453.829 4.062 2.829C11.97-1.656 12.422-.406 12.75 0h2.703c-.422-.563-.906-1.969-1.562-4-.485-1.5-1.407-2.547-2.97-2.938V-7c2.126-.516 3.813-1.781 3.813-3.703 0-1.125-.578-2.125-1.593-2.766-1.266-.828-3.063-1.187-5.844-1.187-1.813 0-3.703.11-5.016.297zm2.61-13.047c.421-.078 1.312-.172 2.578-.172 2.765.031 4.656.844 4.656 2.719 0 1.672-1.781 2.766-4.563 2.766H4.892Zm0 0"/></symbol><symbol overflow="visible" id="D"><path style="stroke:none" d="M2.281 0h11.25v-1.578h-8.64v-12.969H2.28Zm0 0"/></symbol><symbol overflow="visible" id="E"><path style="stroke:none" d="M2.797-14.594c-.344 1.547-1.11 3.797-1.781 5.078l1.687-.156c.844-1 2.125-3.312 2.813-5.125zm0 0"/></symbol><symbol overflow="visible" id="F"><path style="stroke:none" d="M12.719-4.578 14.875 0h2.797l-6.906-14.547H7.625L.75 0h2.703l2.094-4.578zM6.094-6.047l1.968-4.203c.391-.89.735-1.781 1.032-2.64h.062c.297.843.594 1.703 1.047 2.656l1.985 4.187zm0 0"/></symbol><symbol overflow="visible" id="G"><path style="stroke:none" d="M2.281-.047c.875.094 2.25.172 4.047.172 3.297 0 5.578-.422 6.984-1.36 1.032-.702 1.72-1.656 1.72-2.906 0-2.171-2.25-3.312-4.173-3.656v-.047c2.125-.562 3.422-1.781 3.422-3.187 0-1.14-.625-2.016-1.687-2.578-1.25-.735-2.938-1.047-5.547-1.047-1.828 0-3.625.125-4.766.297zm2.61-13.031c.421-.078 1.109-.14 2.312-.14 2.64 0 4.438.671 4.438 2.374 0 1.406-1.625 2.438-4.375 2.438H4.89zm0 6.11h2.156c2.86 0 5.219.812 5.219 2.796 0 2.125-2.485 2.828-5.188 2.828-.922 0-1.672-.015-2.187-.078zm0 0"/></symbol><symbol overflow="visible" id="H"><path style="stroke:none" d="M6.125 0h2.64v-12.953h6.172v-1.594H-.03v1.594h6.156Zm0 0"/></symbol></defs><path style="fill:#99cc30;fill-opacity:1;fill-rule:nonzero;stroke:none" d="M424.996 100.203h163.54s22.378.574 53.94 20.656c0 0 27.833 17.79 36.438 19.797 0 0 7.172 2.297 22.094 2.438 0 0 31.988.433 37.87 2.441 3.59 1.223 6.212 1.93 7.067 2.258 10.637 4.098 18.02 10.176 22.438 14.48.312.551.707 1.204.805 1.157.203-.09-.793-2.883-1.07-3.414-2.138-4.094-6.977-11.993-16.329-18.118-6.422-4.207-12.582-6.003-16.64-6.836a224.212 224.212 0 0 0-14.739-2.421 225.646 225.646 0 0 0-27.582-1.883s-6.168-.43-12.765-5.883a407.101 407.101 0 0 0-30.934-20.586s-27.352-17.988-58.09-24.191c-.36-.075-.719-.125-.719-.125-.3-.043-.699-.09-1.168-.121-.875-.059-1.527-.032-1.644-.028-1.895.02-94.153-3.715-172.555-.855-.57.023-1.527.062-2.707.148-28.703 2.113-39.633 20.004-72.61 38.73-9.523 5.407-26.261 14.821-46.62 18.938a320.64 320.64 0 0 1-23.817 3.871c-32.144 4-45.746 3.203-81.386 4.88a115.64 115.64 0 0 0-26.18 4.253c-24.176 6.863-40.754 20.168-49.84 28.852-8.992 9.629-13.273 14.66-12.855 15.093.324.325 3.375-2.015 9.16-7.027a262.186 262.186 0 0 1 20.609-11.215 262.656 262.656 0 0 1 33.188-13.46 97.105 97.105 0 0 1 6.453-1.735c12.187-2.824 23.382-2.914 32.691-1.965a679.103 679.103 0 0 0 77.629-1.32 151.944 151.944 0 0 0 38.672-7.207 536.221 536.221 0 0 0 34.445-16.297 535.678 535.678 0 0 0 40.692-23.36s13.773-9.945 32.52-9.945" transform="translate(-98.91 -77.89)"/><path style="fill:#99cc30;fill-opacity:1;fill-rule:nonzero;stroke:none" d="m355.535 143.848 301.856-.621s2.707-2.649-2.641-3.473c0 0-66.488-7.59-169.04-5.621 0 0-50.874-1.211-86.124 4.242 0 0-53.578 1.926-44.05 5.473" transform="translate(-98.91 -77.89)"/><use xlink:href="#a" x="331.037" y="180.416" width="100%" height="100%" style="fill:#99cc30;fill-opacity:1" transform="translate(-98.91 -77.89)"/><g style="fill:#99cc30;fill-opacity:1" transform="translate(-98.91 -77.89)"><use xlink:href="#b" x="354.619" y="180.416" width="100%" height="100%"/><use xlink:href="#c" x="380.546" y="180.416" width="100%" height="100%"/></g><g style="fill:#99cc30;fill-opacity:1" transform="translate(-98.91 -77.89)"><use xlink:href="#d" x="399.888" y="180.416" width="100%" height="100%"/><use xlink:href="#e" x="427.376" y="180.416" width="100%" height="100%"/><use xlink:href="#f" x="454.009" y="180.416" width="100%" height="100%"/><use xlink:href="#g" x="474.17" y="180.416" width="100%" height="100%"/><use xlink:href="#d" x="505.936" y="180.416" width="100%" height="100%"/><use xlink:href="#h" x="533.424" y="180.416" width="100%" height="100%"/><use xlink:href="#i" x="552.841" y="180.416" width="100%" height="100%"/><use xlink:href="#j" x="563.591" y="180.416" width="100%" height="100%"/><use xlink:href="#i" x="586.021" y="180.416" width="100%" height="100%"/><use xlink:href="#d" x="596.771" y="180.416" width="100%" height="100%"/><use xlink:href="#k" x="624.259" y="180.416" width="100%" height="100%"/><use xlink:href="#f" x="650.594" y="180.416" width="100%" height="100%"/></g><path style="fill:none;stroke:#8a9445;stroke-width:2;stroke-linecap:butt;stroke-linejoin:miter;stroke-miterlimit:10;stroke-opacity:1" d="m0 0 2.676-6.938h3.461l-8.554 22.063h-3.907l-8.52-22.063h3.348L-8.89 0zm-8.222 2.226 2.457 6.383A61.67 61.67 0 0 1-4.5 12.601h.075c.37-1.277.742-2.586 1.3-4.027l2.458-6.348Zm0 0" transform="matrix(1 0 0 -1 247.898 95.586)"/><path style="fill:none;stroke:#8a9445;stroke-width:2;stroke-linecap:butt;stroke-linejoin:miter;stroke-miterlimit:10;stroke-opacity:1" d="M.001-.002v-12.992c0-6.844 3.868-9.43 9-9.43 5.43 0 9.485 2.786 9.485 9.559V-.002h-3.274V-13.06c0-4.875-2.379-7.04-6.097-7.04-3.348 0-5.84 2.098-5.84 7.04V-.002zm0 0" transform="matrix(1 0 0 -1 258.5 80.463)"/><path style="fill:none;stroke:#8a9445;stroke-width:2;stroke-linecap:butt;stroke-linejoin:miter;stroke-miterlimit:10;stroke-opacity:1" d="M0 .002h3.273v19.636h7.665v2.422H-7.625v-2.422H0Zm0 0" transform="matrix(1 0 0 -1 289.223 102.525)"/><path style="fill:none;stroke:#8a9445;stroke-width:2;stroke-linecap:butt;stroke-linejoin:miter;stroke-miterlimit:10;stroke-opacity:1" d="M-.002.001c-6.691 0-11.64-4.586-11.64-11.59 0-6.675 4.648-11.195 11.269-11.195 6.398 0 11.645 4.027 11.645 11.621C11.272-4.616 6.846.001-.002.001zm-.144-2.324c5.39 0 7.996-4.586 7.996-8.969 0-5.007-2.903-9.168-8.036-9.168-5.093 0-7.996 4.223-7.996 8.938 0 4.844 2.676 9.2 8.036 9.2zm0 0" transform="matrix(1 0 0 -1 313.96 80.103)"/><path style="fill:none;stroke:#8a9445;stroke-width:2;stroke-linecap:butt;stroke-linejoin:miter;stroke-miterlimit:10;stroke-opacity:1" d="M0-.001c1.637-.164 3.57-.262 5.879-.262 4.871 0 8.738 1.113 11.082 3.176 2.344 2.031 3.61 4.976 3.61 8.574 0 3.57-1.301 6.121-3.536 7.926-2.191 1.797-5.504 2.746-10.152 2.746-2.57 0-4.91-.195-6.883-.457zm3.234 19.61c.86.163 2.121.292 3.797.292 6.844 0 10.192-3.305 10.153-8.512 0-5.957-3.754-9.359-10.676-9.359-1.266 0-2.453.031-3.274.164zm0 0" transform="matrix(1 0 0 -1 331.293 102.46)"/><path style="fill:none;stroke:#8a9445;stroke-width:2;stroke-linecap:butt;stroke-linejoin:miter;stroke-miterlimit:10;stroke-opacity:1" d="M0 0h-9.746v6.973H.559V9.36h-13.54v-22.063H1.118v2.39H-9.746v7.958H0Zm0 0" transform="matrix(1 0 0 -1 370.907 89.825)"/><path style="fill:none;stroke:#8a9445;stroke-width:2;stroke-linecap:butt;stroke-linejoin:miter;stroke-miterlimit:10;stroke-opacity:1" d="M-.001.002h3.164L1.601 22.06h-4.13l-4.464-10.668c-1.113-2.785-2.008-5.207-2.64-7.43h-.11c-.637 2.29-1.488 4.712-2.531 7.43l-4.278 10.668h-4.129L-22.43.002h3.09l.668 9.457c.223 3.308.41 7.008.485 9.754h.074c.707-2.618 1.71-5.465 2.902-8.575L-11.157.131h2.453l4.426 10.703c1.265 3.047 2.304 5.793 3.164 8.379h.11c-.036-2.746.187-6.446.37-9.524zm0 0" transform="matrix(1 0 0 -1 399.845 102.525)"/><path style="fill:none;stroke:#8a9445;stroke-width:2;stroke-linecap:butt;stroke-linejoin:miter;stroke-miterlimit:10;stroke-opacity:1" d="M0 .001c-6.696 0-11.642-4.586-11.642-11.59 0-6.675 4.649-11.195 11.27-11.195 6.398 0 11.645 4.027 11.645 11.621C11.273-4.616 6.847.001-.001.001zm-.15-2.324c5.395 0 8-4.586 8-8.969 0-5.007-2.902-9.168-8.035-9.168-5.097 0-8 4.223-8 8.938 0 4.844 2.68 9.2 8.036 9.2zm0 0" transform="matrix(1 0 0 -1 420.005 80.103)"/><path style="fill:none;stroke:#8a9445;stroke-width:2;stroke-linecap:butt;stroke-linejoin:miter;stroke-miterlimit:10;stroke-opacity:1" d="M.001.002h13.945v2.386H3.236V22.06H0Zm0 0" transform="matrix(1 0 0 -1 437.34 102.525)"/><path style="fill:none;stroke:#8a9445;stroke-width:2;stroke-linecap:butt;stroke-linejoin:miter;stroke-miterlimit:10;stroke-opacity:1" d="M0-.002V-22.06h3.237V-.002zm0 0" transform="matrix(1 0 0 -1 456.755 80.463)"/><path style="fill:none;stroke:#8a9445;stroke-width:2;stroke-linecap:butt;stroke-linejoin:miter;stroke-miterlimit:10;stroke-opacity:1" d="M-.001.002h18.3v2.386H4.277v.098l13.836 17.84v1.734H1.19v-2.386h12.72v-.102L-.002 1.67Zm0 0" transform="matrix(1 0 0 -1 465.794 102.525)"/><path style="fill:none;stroke:#8a9445;stroke-width:2;stroke-linecap:butt;stroke-linejoin:miter;stroke-miterlimit:10;stroke-opacity:1" d="M0-.002V-22.06h3.237V-.002zm0 0" transform="matrix(1 0 0 -1 489.935 80.463)"/><path style="fill:none;stroke:#8a9445;stroke-width:2;stroke-linecap:butt;stroke-linejoin:miter;stroke-miterlimit:10;stroke-opacity:1" d="M.001.001c-6.695 0-11.645-4.586-11.645-11.59 0-6.675 4.653-11.195 11.274-11.195 6.394 0 11.64 4.027 11.64 11.621C11.27-4.616 6.846.001.002.001zm-.148-2.324c5.39 0 7.996-4.586 7.996-8.969 0-5.007-2.903-9.168-8.036-9.168-5.093 0-7.996 4.223-7.996 8.938 0 4.844 2.676 9.2 8.036 9.2zm0 0" transform="matrix(1 0 0 -1 510.84 80.103)"/><path style="fill:none;stroke:#8a9445;stroke-width:2;stroke-linecap:butt;stroke-linejoin:miter;stroke-miterlimit:10;stroke-opacity:1" d="M0 .002v9.426c0 3.664-.074 6.316-.262 9.097l.114.035c1.265-2.39 2.937-4.91 4.687-7.367L12.496.002h3.274V22.06h-3.047v-9.226c0-3.438.074-6.125.37-9.07l-.073-.032c-1.192 2.258-2.641 4.582-4.5 7.168L.484 22.06H-3.05V.002Zm0 0" transform="matrix(1 0 0 -1 531.223 102.525)"/><path style="fill:none;stroke:#8a9445;stroke-width:2;stroke-linecap:butt;stroke-linejoin:miter;stroke-miterlimit:10;stroke-opacity:1" d="M-.001 0h-9.742v6.973h10.3V9.36H-12.98v-22.063H1.116v2.39h-10.86v7.958H0zm0 0" transform="matrix(1 0 0 -1 567.49 89.825)"/><g style="fill:#000;fill-opacity:1" transform="translate(-98.91 -77.89)"><use xlink:href="#l" x="171.717" y="247.083" style="fill:#fff" width="100%" height="100%"/><use xlink:href="#m" x="242.236" y="247.083" style="fill:#fff" width="100%" height="100%"/><use xlink:href="#n" x="294.5" y="247.083" style="fill:#fff" width="100%" height="100%"/><use xlink:href="#o" x="324.344" y="247.083" style="fill:#fff" width="100%" height="100%"/><use xlink:href="#p" x="371.609" y="247.083" style="fill:#fff" width="100%" height="100%"/><use xlink:href="#q" x="400.998" y="247.083" style="fill:#fff" width="100%" height="100%"/><use xlink:href="#r" x="448.264" y="247.083" style="fill:#fff" width="100%" height="100%"/><use xlink:href="#s" x="495.756" y="247.083" style="fill:#fff" width="100%" height="100%"/><use xlink:href="#t" x="540.37" y="247.083" style="fill:#fff" width="100%" height="100%"/><use xlink:href="#p" x="589.756" y="247.083" style="fill:#fff" width="100%" height="100%"/><use xlink:href="#u" x="619.145" y="247.083" style="fill:#fff" width="100%" height="100%"/><use xlink:href="#r" x="666.486" y="247.083" style="fill:#fff" width="100%" height="100%"/></g><path style="fill:#b8e80c;fill-opacity:1;fill-rule:nonzero;stroke:none" d="M424.996 100.203h163.54s22.378.574 53.94 20.656c0 0 27.833 17.79 36.438 19.797 0 0 7.172 2.297 22.094 2.438 0 0 31.988.433 37.87 2.441 3.59 1.223 6.212 1.93 7.067 2.258 10.637 4.098 18.02 10.176 22.438 14.48.312.551.707 1.204.805 1.157.203-.09-.793-2.883-1.07-3.414-2.138-4.094-6.977-11.993-16.329-18.118-6.422-4.207-12.582-6.003-16.64-6.836a224.212 224.212 0 0 0-14.739-2.421 225.646 225.646 0 0 0-27.582-1.883s-6.168-.43-12.765-5.883a407.101 407.101 0 0 0-30.934-20.586s-27.352-17.988-58.09-24.191c-.36-.075-.719-.125-.719-.125-.3-.043-.699-.09-1.168-.121-.875-.059-1.527-.032-1.644-.028-1.895.02-94.153-3.715-172.555-.855-.57.023-1.527.062-2.707.148-28.703 2.113-39.633 20.004-72.61 38.73-9.523 5.407-26.261 14.821-46.62 18.938a320.64 320.64 0 0 1-23.817 3.871c-32.144 4-45.746 3.203-81.386 4.88a115.64 115.64 0 0 0-26.18 4.253c-24.176 6.863-40.754 20.168-49.84 28.852-8.992 9.629-13.273 14.66-12.855 15.093.324.325 3.375-2.015 9.16-7.027a262.186 262.186 0 0 1 20.609-11.215 262.656 262.656 0 0 1 33.188-13.46 97.105 97.105 0 0 1 6.453-1.735c12.187-2.824 23.382-2.914 32.691-1.965a679.103 679.103 0 0 0 77.629-1.32 151.944 151.944 0 0 0 38.672-7.207 536.221 536.221 0 0 0 34.445-16.297 535.678 535.678 0 0 0 40.692-23.36s13.773-9.945 32.52-9.945" transform="translate(-98.91 -77.89)"/><path style="fill:#b8e80c;fill-opacity:1;fill-rule:nonzero;stroke:none" d="m355.535 143.848 301.856-.621s2.707-2.649-2.641-3.473c0 0-66.488-7.59-169.04-5.621 0 0-50.874-1.211-86.124 4.242 0 0-53.578 1.926-44.05 5.473" transform="translate(-98.91 -77.89)"/><use xlink:href="#a" x="331.037" y="180.416" width="100%" height="100%" style="fill:#b8e80c;fill-opacity:1" transform="translate(-98.91 -77.89)"/><g style="fill:#b8e80c;fill-opacity:1" transform="translate(-98.91 -77.89)"><use xlink:href="#b" x="354.619" y="180.416" width="100%" height="100%"/><use xlink:href="#c" x="380.546" y="180.416" width="100%" height="100%"/></g><g style="fill:#b8e80c;fill-opacity:1" transform="translate(-98.91 -77.89)"><use xlink:href="#d" x="399.888" y="180.416" width="100%" height="100%"/><use xlink:href="#e" x="427.376" y="180.416" width="100%" height="100%"/><use xlink:href="#f" x="454.009" y="180.416" width="100%" height="100%"/><use xlink:href="#g" x="474.17" y="180.416" width="100%" height="100%"/><use xlink:href="#d" x="505.936" y="180.416" width="100%" height="100%"/><use xlink:href="#h" x="533.424" y="180.416" width="100%" height="100%"/><use xlink:href="#i" x="552.841" y="180.416" width="100%" height="100%"/><use xlink:href="#j" x="563.591" y="180.416" width="100%" height="100%"/><use xlink:href="#i" x="586.021" y="180.416" width="100%" height="100%"/><use xlink:href="#d" x="596.771" y="180.416" width="100%" height="100%"/><use xlink:href="#k" x="624.259" y="180.416" width="100%" height="100%"/><use xlink:href="#f" x="650.594" y="180.416" width="100%" height="100%"/></g><path style="fill:none;stroke:#b8e80c;stroke-width:2;stroke-linecap:butt;stroke-linejoin:miter;stroke-miterlimit:10;stroke-opacity:1" d="m0 0 2.676-6.938h3.461l-8.554 22.063h-3.907l-8.52-22.063h3.348L-8.89 0zm-8.222 2.226 2.457 6.383A61.67 61.67 0 0 1-4.5 12.601h.075c.37-1.277.742-2.586 1.3-4.027l2.458-6.348Zm0 0" transform="matrix(1 0 0 -1 247.898 95.586)"/><path style="fill:none;stroke:#b8e80c;stroke-width:2;stroke-linecap:butt;stroke-linejoin:miter;stroke-miterlimit:10;stroke-opacity:1" d="M.001-.002v-12.992c0-6.844 3.868-9.43 9-9.43 5.43 0 9.485 2.786 9.485 9.559V-.002h-3.274V-13.06c0-4.875-2.379-7.04-6.097-7.04-3.348 0-5.84 2.098-5.84 7.04V-.002zm0 0" transform="matrix(1 0 0 -1 258.5 80.463)"/><path style="fill:none;stroke:#b8e80c;stroke-width:2;stroke-linecap:butt;stroke-linejoin:miter;stroke-miterlimit:10;stroke-opacity:1" d="M0 .002h3.273v19.636h7.665v2.422H-7.625v-2.422H0Zm0 0" transform="matrix(1 0 0 -1 289.223 102.525)"/><path style="fill:none;stroke:#b8e80c;stroke-width:2;stroke-linecap:butt;stroke-linejoin:miter;stroke-miterlimit:10;stroke-opacity:1" d="M-.002.001c-6.691 0-11.64-4.586-11.64-11.59 0-6.675 4.648-11.195 11.269-11.195 6.398 0 11.645 4.027 11.645 11.621C11.272-4.616 6.846.001-.002.001zm-.144-2.324c5.39 0 7.996-4.586 7.996-8.969 0-5.007-2.903-9.168-8.036-9.168-5.093 0-7.996 4.223-7.996 8.938 0 4.844 2.676 9.2 8.036 9.2zm0 0" transform="matrix(1 0 0 -1 313.96 80.103)"/><path style="fill:none;stroke:#b8e80c;stroke-width:2;stroke-linecap:butt;stroke-linejoin:miter;stroke-miterlimit:10;stroke-opacity:1" d="M0-.001c1.637-.164 3.57-.262 5.879-.262 4.871 0 8.738 1.113 11.082 3.176 2.344 2.031 3.61 4.976 3.61 8.574 0 3.57-1.301 6.121-3.536 7.926-2.191 1.797-5.504 2.746-10.152 2.746-2.57 0-4.91-.195-6.883-.457zm3.234 19.61c.86.163 2.121.292 3.797.292 6.844 0 10.192-3.305 10.153-8.512 0-5.957-3.754-9.359-10.676-9.359-1.266 0-2.453.031-3.274.164zm0 0" transform="matrix(1 0 0 -1 331.293 102.46)"/><path style="fill:none;stroke:#b8e80c;stroke-width:2;stroke-linecap:butt;stroke-linejoin:miter;stroke-miterlimit:10;stroke-opacity:1" d="M0 0h-9.746v6.973H.559V9.36h-13.54v-22.063H1.118v2.39H-9.746v7.958H0Zm0 0" transform="matrix(1 0 0 -1 370.907 89.825)"/><path style="fill:none;stroke:#b8e80c;stroke-width:2;stroke-linecap:butt;stroke-linejoin:miter;stroke-miterlimit:10;stroke-opacity:1" d="M-.001.002h3.164L1.601 22.06h-4.13l-4.464-10.668c-1.113-2.785-2.008-5.207-2.64-7.43h-.11c-.637 2.29-1.488 4.712-2.531 7.43l-4.278 10.668h-4.129L-22.43.002h3.09l.668 9.457c.223 3.308.41 7.008.485 9.754h.074c.707-2.618 1.71-5.465 2.902-8.575L-11.157.131h2.453l4.426 10.703c1.265 3.047 2.304 5.793 3.164 8.379h.11c-.036-2.746.187-6.446.37-9.524zm0 0" transform="matrix(1 0 0 -1 399.845 102.525)"/><path style="fill:none;stroke:#b8e80c;stroke-width:2;stroke-linecap:butt;stroke-linejoin:miter;stroke-miterlimit:10;stroke-opacity:1" d="M0 .001c-6.696 0-11.642-4.586-11.642-11.59 0-6.675 4.649-11.195 11.27-11.195 6.398 0 11.645 4.027 11.645 11.621C11.273-4.616 6.847.001-.001.001zm-.15-2.324c5.395 0 8-4.586 8-8.969 0-5.007-2.902-9.168-8.035-9.168-5.097 0-8 4.223-8 8.938 0 4.844 2.68 9.2 8.036 9.2zm0 0" transform="matrix(1 0 0 -1 420.005 80.103)"/><path style="fill:none;stroke:#b8e80c;stroke-width:2;stroke-linecap:butt;stroke-linejoin:miter;stroke-miterlimit:10;stroke-opacity:1" d="M.001.002h13.945v2.386H3.236V22.06H0Zm0 0" transform="matrix(1 0 0 -1 437.34 102.525)"/><path style="fill:none;stroke:#b8e80c;stroke-width:2;stroke-linecap:butt;stroke-linejoin:miter;stroke-miterlimit:10;stroke-opacity:1" d="M0-.002V-22.06h3.237V-.002zm0 0" transform="matrix(1 0 0 -1 456.755 80.463)"/><path style="fill:none;stroke:#b8e80c;stroke-width:2;stroke-linecap:butt;stroke-linejoin:miter;stroke-miterlimit:10;stroke-opacity:1" d="M-.001.002h18.3v2.386H4.277v.098l13.836 17.84v1.734H1.19v-2.386h12.72v-.102L-.002 1.67Zm0 0" transform="matrix(1 0 0 -1 465.794 102.525)"/><path style="fill:none;stroke:#b8e80c;stroke-width:2;stroke-linecap:butt;stroke-linejoin:miter;stroke-miterlimit:10;stroke-opacity:1" d="M0-.002V-22.06h3.237V-.002zm0 0" transform="matrix(1 0 0 -1 489.935 80.463)"/><path style="fill:none;stroke:#b8e80c;stroke-width:2;stroke-linecap:butt;stroke-linejoin:miter;stroke-miterlimit:10;stroke-opacity:1" d="M.001.001c-6.695 0-11.645-4.586-11.645-11.59 0-6.675 4.653-11.195 11.274-11.195 6.394 0 11.64 4.027 11.64 11.621C11.27-4.616 6.846.001.002.001zm-.148-2.324c5.39 0 7.996-4.586 7.996-8.969 0-5.007-2.903-9.168-8.036-9.168-5.093 0-7.996 4.223-7.996 8.938 0 4.844 2.676 9.2 8.036 9.2zm0 0" transform="matrix(1 0 0 -1 510.84 80.103)"/><path style="fill:none;stroke:#b8e80c;stroke-width:2;stroke-linecap:butt;stroke-linejoin:miter;stroke-miterlimit:10;stroke-opacity:1" d="M0 .002v9.426c0 3.664-.074 6.316-.262 9.097l.114.035c1.265-2.39 2.937-4.91 4.687-7.367L12.496.002h3.274V22.06h-3.047v-9.226c0-3.438.074-6.125.37-9.07l-.073-.032c-1.192 2.258-2.641 4.582-4.5 7.168L.484 22.06H-3.05V.002Zm0 0" transform="matrix(1 0 0 -1 531.223 102.525)"/><path style="fill:none;stroke:#b8e80c;stroke-width:2;stroke-linecap:butt;stroke-linejoin:miter;stroke-miterlimit:10;stroke-opacity:1" d="M-.001 0h-9.742v6.973h10.3V9.36H-12.98v-22.063H1.116v2.39h-10.86v7.958H0zm0 0" transform="matrix(1 0 0 -1 567.49 89.825)"/><path style="fill:#fff;fill-opacity:1;fill-rule:nonzero;stroke:none" d="M170.695 304.125c-4.855 3.45-9.48 1.102-9.48 1.102-4.297-1.747-4.809-6.579-4.809-6.579v-4.277c1.914 1.106 5.32.598 5.32.598l-.042 2.992c0 .55.23 1.101.23 1.101.934 2.946 3.828 2.579 3.828 2.579 2.711.183 3.55-2.579 3.55-2.579l3.923.922c-.184 2.297-2.52 4.141-2.52 4.141m-31.101 2.668h-1.121v-7.5c.468.047 1.12-.23 1.12-.23zm-10.133 0h-1.262v-7.73s.735.277 1.262.23zm44.828-8.926-4.902-1.012s-1.633-.414-2.29 1.29c0 0-.37 1.195-1.445 1.101 0 0-1.12.14-1.543-1.195v-3.68s2.383-.781 3.457-1.887c0 0 .934-1.011-.047-1.746 0 0-.28-.644-1.402-.14l-1.992 1.199v-16.563s-.809-10.117-10.582-13.98c0 0-3.055-1.29-9.344-.676 0 0-5.976-1.105-10.21 3.926 0 0-12.887-.492-19.302 11.039 0 0-2.988 4.477-3.171 10.488 0 0-.813 8.586.37 8.34 0 0 1.497.797 1.868-1.289 0 0-.246-8.094.875-11.039 0 0 1.867-6.684 5.914-9.875 0 0 4.418-4.598 11.64-5.211 0 0-2.8 4.23-.496 10.18 0 0 2.551 7.36 10.957 7.543 0 0 1.622.246 1.622-1.285 0 0 .101-.98-1.196-1.043 0 0-2.851.304-5.902-1.965 0 0-4.797-3.25-3.8-9.383 0 0 1.058-7.668 9.276-8.098 0 0 5.418-.61 8.84 4.602 0 0 2.059 1.164 2.118-1.227 0 0-.747-1.902-2.676-3.129 0 0 3.113.493 5.668 2.453 0 0 3.922 3.067 4.855 7.977l.188 1.531.058 17.356s-3.422.676-6.285-1.043c0 0-1.867-1.04-2.805-2.27 0 0-1.242-1.84-2.3-.12 0 0-.375 0-.125 3.066l-.063 14.535h-7.969l-.125-8.77s.125-1.96-2.054-1.347c0 0-4.235 1.468-12.02 0 0 0-1.805-.86-2.176.796v9.32h-8.093l-.067-22.14s-.633-1.629-2.113-.55c0 0-.25.304-.25.734v22.632s.25 1.735 1.883 1.872H130.3s1.543-.094 1.543-2.164l-.047-7.45s2.379.414 4.156-.093l.14 8.097s0 1.516 1.868 1.61h13.121s1.727-.278 1.492-1.84v-14.86l1.309.739.047 4.965s.234 9.34 10.648 10.257c0 0 7.703.922 10.973-7.773 0 0 .84-2.16-1.262-2.805" transform="translate(-98.91 -77.89)"/><path style="fill:#fff;fill-opacity:1;fill-rule:nonzero;stroke:none" d="M155.844 279.008s-1.805-.063-1.961 1.933c0 0-.125 1.684 1.96 1.899 0 0 1.9.062 1.9-1.914 0 0-.063-1.98-1.9-1.918M694.152 304.125c4.785 3.45 9.34 1.102 9.34 1.102 4.235-1.747 4.738-6.579 4.738-6.579v-4.277c-1.886 1.106-5.246.598-5.246.598l.047 2.992c0 .55-.23 1.101-.23 1.101-.918 2.946-3.774 2.579-3.774 2.579-2.668.183-3.496-2.579-3.496-2.579l-3.867.922c.18 2.297 2.488 4.141 2.488 4.141m30.645 2.668h1.105v-7.5c-.46.047-1.105-.23-1.105-.23zm9.984 0h1.242v-7.73s-.722.277-1.242.23zm-44.172-8.926 4.829-1.012s1.613-.414 2.257 1.29c0 0 .368 1.195 1.426 1.101 0 0 1.102.14 1.516-1.195v-3.68s-2.344-.781-3.403-1.887c0 0-.921-1.011.047-1.746 0 0 .274-.644 1.38-.14l1.964 1.199v-16.563s.797-10.117 10.43-13.98c0 0 3.004-1.29 9.203-.676 0 0 5.89-1.105 10.062 3.926 0 0 12.7-.492 19.02 11.039 0 0 2.945 4.477 3.129 10.488 0 0 .797 8.586-.371 8.34 0 0-1.469.797-1.84-1.289 0 0 .246-8.094-.856-11.039 0 0-1.843-6.684-5.832-9.875 0 0-4.355-4.598-11.472-5.211 0 0 2.761 4.23.492 10.18 0 0-2.516 7.36-10.8 7.543 0 0-1.595.246-1.595-1.285 0 0-.101-.98 1.176-1.043 0 0 2.813.304 5.82-1.965 0 0 4.723-3.25 3.743-9.383 0 0-1.043-7.668-9.145-8.098 0 0-5.336-.61-8.71 4.602 0 0-2.024 1.164-2.087-1.227 0 0 .735-1.902 2.637-3.129 0 0-3.066.493-5.582 2.453 0 0-3.867 3.067-4.785 7.977l-.184 1.531-.062 17.356s3.375.676 6.199-1.043c0 0 1.84-1.04 2.758-2.27 0 0 1.23-1.84 2.273-.12 0 0 .367 0 .121 3.066l.063 14.535h7.851l.125-8.77s-.125-1.96 2.024-1.347c0 0 4.172 1.468 11.84 0 0 0 1.78-.86 2.148.796v9.32h7.977l.062-22.14s.625-1.629 2.086-.55c0 0 .242.304.242.734v22.632s-.242 1.735-1.855 1.872h-12.977s-1.52-.094-1.52-2.164l.048-7.45s-2.348.414-4.094-.093l-.137 8.097s0 1.516-1.844 1.61h-12.93s-1.702-.278-1.472-1.84v-14.86l-1.29.739-.042 4.965s-.23 9.34-10.492 10.257c0 0-7.594.922-10.817-7.773 0 0-.828-2.16 1.246-2.805" transform="translate(-98.91 -77.89)"/><path style="fill:#fff;fill-opacity:1;fill-rule:nonzero;stroke:none" d="M708.785 279.008s1.778-.063 1.93 1.933c0 0 .125 1.684-1.93 1.899 0 0-1.87.062-1.87-1.914 0 0 .058-1.98 1.87-1.918" transform="translate(-98.91 -77.89)"/><g style="fill:#b8e80c;fill-opacity:1" transform="translate(-98.91 -77.89)"><use xlink:href="#v" x="220.173" y="292.372" width="100%" height="100%"/><use xlink:href="#w" x="233.343" y="292.372" width="100%" height="100%"/><use xlink:href="#x" x="259.083" y="292.372" width="100%" height="100%"/><use xlink:href="#v" x="279.873" y="292.372" width="100%" height="100%"/><use xlink:href="#y" x="293.043" y="292.372" width="100%" height="100%"/><use xlink:href="#z" x="313.803" y="292.372" width="100%" height="100%"/><use xlink:href="#y" x="343.923" y="292.372" width="100%" height="100%"/><use xlink:href="#A" x="364.683" y="292.372" width="100%" height="100%"/><use xlink:href="#B" x="377.043" y="292.372" width="100%" height="100%"/><use xlink:href="#y" x="399.003" y="292.372" width="100%" height="100%"/><use xlink:href="#C" x="419.763" y="292.372" width="100%" height="100%"/><use xlink:href="#A" x="441.903" y="292.372" width="100%" height="100%"/><use xlink:href="#D" x="454.263" y="292.372" width="100%" height="100%"/></g><use xlink:href="#E" x="471.336" y="292.372" width="100%" height="100%" style="fill:#b8e80c;fill-opacity:1" transform="translate(-98.91 -77.89)"/><use xlink:href="#F" x="480.843" y="292.372" width="100%" height="100%" style="fill:#b8e80c;fill-opacity:1" transform="translate(-98.91 -77.89)"/><g style="fill:#b8e80c;fill-opacity:1" transform="translate(-98.91 -77.89)"><use xlink:href="#z" x="505.083" y="292.372" width="100%" height="100%"/><use xlink:href="#G" x="535.203" y="292.372" width="100%" height="100%"/><use xlink:href="#v" x="557.463" y="292.372" width="100%" height="100%"/><use xlink:href="#y" x="570.633" y="292.372" width="100%" height="100%"/><use xlink:href="#w" x="591.393" y="292.372" width="100%" height="100%"/><use xlink:href="#H" x="617.133" y="292.372" width="100%" height="100%"/><use xlink:href="#y" x="638.043" y="292.372" width="100%" height="100%"/></g><path style="fill:none;stroke:#b8e80c;stroke-width:.5;stroke-linecap:butt;stroke-linejoin:miter;stroke-miterlimit:10;stroke-opacity:1" d="M0 .001v-14.558h2.61V0Zm0 0" transform="matrix(1 0 0 -1 123.543 199.923)"/><path style="fill:none;stroke:#b8e80c;stroke-width:.5;stroke-linecap:butt;stroke-linejoin:miter;stroke-miterlimit:10;stroke-opacity:1" d="M-.001.001v6.22c0 2.42-.06 4.17-.207 6.007l.09.02C.9 10.668 2.248 9.004 3.658 7.387L10.08.001h2.64V14.56h-2.46V8.466c0-2.265.058-4.039.3-5.98l-.062-.024c-.958 1.492-2.13 3.024-3.63 4.73L.39 14.56h-2.848V0Zm0 0" transform="matrix(1 0 0 -1 139.174 214.482)"/><path style="fill:none;stroke:#b8e80c;stroke-width:.5;stroke-linecap:butt;stroke-linejoin:miter;stroke-miterlimit:10;stroke-opacity:1" d="M0 0c1.08-.52 3.212-.93 5.161-.93 4.77 0 7.078 1.945 7.078 4.191 0 2.14-1.738 3.328-5.16 4.277-2.789.778-4.02 1.446-4.02 2.809 0 .992 1.051 2.18 3.81 2.18 1.831 0 3.183-.43 3.843-.692l.719 1.535c-.903.368-2.403.711-4.47.711-3.933 0-6.542-1.683-6.542-3.953 0-2.05 2.043-3.281 5.34-4.125C8.489 5.25 9.57 4.472 9.57 3.11c0-1.465-1.562-2.485-4.23-2.485-1.801 0-3.512.434-4.68.953zm0 0" transform="matrix(1 0 0 -1 161.433 213.769)"/><path style="fill:none;stroke:#b8e80c;stroke-width:.5;stroke-linecap:butt;stroke-linejoin:miter;stroke-miterlimit:10;stroke-opacity:1" d="M0 .001v-14.558h2.609V0Zm0 0" transform="matrix(1 0 0 -1 183.243 199.923)"/><path style="fill:none;stroke:#b8e80c;stroke-width:.5;stroke-linecap:butt;stroke-linejoin:miter;stroke-miterlimit:10;stroke-opacity:1" d="M0 0h-7.86v4.6H.45V6.18H-10.47V-8.38H.898v1.575h-8.757v5.25H0Zm0 0" transform="matrix(1 0 0 -1 206.883 206.101)"/><path style="fill:none;stroke:#b8e80c;stroke-width:.5;stroke-linecap:butt;stroke-linejoin:miter;stroke-miterlimit:10;stroke-opacity:1" d="M0 .001h2.551L1.29 14.56H-2.04L-5.64 7.517C-6.54 5.68-7.261 4.083-7.77 2.615h-.09c-.512 1.511-1.2 3.109-2.043 4.902l-3.45 7.043h-3.327L-18.09 0h2.488l.543 6.242c.18 2.18.328 4.622.387 6.438h.062c.57-1.73 1.379-3.61 2.34-5.66l3.27-6.934h1.98l3.57 7.063c1.02 2.008 1.86 3.824 2.547 5.531h.094c-.031-1.816.148-4.258.297-6.285zm0 0" transform="matrix(1 0 0 -1 234.723 214.482)"/><path style="fill:none;stroke:#b8e80c;stroke-width:.5;stroke-linecap:butt;stroke-linejoin:miter;stroke-miterlimit:10;stroke-opacity:1" d="M0 0h-7.86v4.6H.45V6.18H-10.47V-8.38H.898v1.575h-8.757v5.25H0Zm0 0" transform="matrix(1 0 0 -1 257.762 206.101)"/><path style="fill:none;stroke:#b8e80c;stroke-width:.5;stroke-linecap:butt;stroke-linejoin:miter;stroke-miterlimit:10;stroke-opacity:1" d="M-.001.001h2.609v5.832c.601-.109 1.32-.132 2.101-.132 2.551 0 4.801.542 6.18 1.601 1.02.754 1.563 1.793 1.563 3.11 0 1.296-.66 2.355-1.774 3.046-1.199.778-3.09 1.207-5.668 1.207-2.101 0-3.75-.129-5.011-.28zm2.609 13.024c.453.086 1.32.152 2.46.152 2.884 0 4.77-.93 4.77-2.851 0-2.008-1.918-3.11-5.066-3.11-.871 0-1.594.043-2.164.149zm0 0" transform="matrix(1 0 0 -1 280.412 214.482)"/><path style="fill:none;stroke:#b8e80c;stroke-width:.5;stroke-linecap:butt;stroke-linejoin:miter;stroke-miterlimit:10;stroke-opacity:1" d="M-.002 0H-7.86v4.6H.452V6.18H-10.47V-8.38H.9v1.575h-8.76v5.25h7.859Zm0 0" transform="matrix(1 0 0 -1 312.842 206.101)"/><path style="fill:none;stroke:#b8e80c;stroke-width:.5;stroke-linecap:butt;stroke-linejoin:miter;stroke-miterlimit:10;stroke-opacity:1" d="M.001.001h2.61V6.31h2.457c2.371-.067 3.453-.824 4.05-2.832C9.69 1.66 10.139.41 10.47 0h2.7c-.419.563-.899 1.965-1.56 3.996-.48 1.512-1.41 2.547-2.972 2.938v.062c2.133.52 3.813 1.793 3.813 3.715 0 1.125-.57 2.117-1.59 2.766-1.262.82-3.063 1.187-5.852 1.187-1.8 0-3.691-.105-5.008-.3zm2.61 13.047c.418.086 1.32.172 2.578.172 2.762-.023 4.652-.844 4.652-2.723 0-1.664-1.773-2.765-4.562-2.765H2.61Zm0 0" transform="matrix(1 0 0 -1 323.132 214.482)"/><path style="fill:none;stroke:#b8e80c;stroke-width:.5;stroke-linecap:butt;stroke-linejoin:miter;stroke-miterlimit:10;stroke-opacity:1" d="M-.001.001h11.25v1.575H2.608V14.56h-2.61zm0 0" transform="matrix(1 0 0 -1 357.63 214.482)"/><path style="fill:none;stroke:#b8e80c;stroke-width:.5;stroke-linecap:butt;stroke-linejoin:miter;stroke-miterlimit:10;stroke-opacity:1" d="M0 .001c-.332-1.554-1.109-3.804-1.773-5.078l1.684.152C.75-3.932 2.04-1.62 2.727.193zm0 0" transform="matrix(1 0 0 -1 375.211 199.88)"/><path style="fill:none;stroke:#b8e80c;stroke-width:.5;stroke-linecap:butt;stroke-linejoin:miter;stroke-miterlimit:10;stroke-opacity:1" d="m-.002 0 2.16-4.578h2.794L-1.951 9.981h-3.148L-11.97-4.578h2.699L-7.169 0ZM-6.63 1.47l1.98 4.21c.39.887.719 1.773 1.02 2.637h.062c.297-.844.598-1.707 1.047-2.657l1.98-4.19zm0 0" transform="matrix(1 0 0 -1 394.65 209.903)"/><path style="fill:none;stroke:#b8e80c;stroke-width:.5;stroke-linecap:butt;stroke-linejoin:miter;stroke-miterlimit:10;stroke-opacity:1" d="M0 .001h2.551L1.29 14.56H-2.04L-5.64 7.517C-6.54 5.68-7.261 4.083-7.77 2.615h-.089c-.512 1.511-1.203 3.109-2.043 4.902l-3.45 7.043h-3.327L-18.09 0h2.488l.539 6.242c.184 2.18.332 4.622.39 6.438h.063c.57-1.73 1.379-3.61 2.34-5.66L-9 .087h1.98l3.57 7.063c1.02 2.008 1.86 3.824 2.547 5.531h.09c-.027-1.816.152-4.258.3-6.285Zm0 0" transform="matrix(1 0 0 -1 426 214.482)"/><path style="fill:none;stroke:#b8e80c;stroke-width:.5;stroke-linecap:butt;stroke-linejoin:miter;stroke-miterlimit:10;stroke-opacity:1" d="M0 .001c.872-.086 2.25-.176 4.051-.176 3.297 0 5.578.434 6.989 1.364 1.02.71 1.71 1.664 1.71 2.914 0 2.164-2.25 3.305-4.171 3.652v.043C10.71 8.361 12 9.591 12 10.993c0 1.149-.628 2.012-1.68 2.57-1.26.735-2.94 1.06-5.55 1.06-1.832 0-3.629-.13-4.77-.301zm2.61 13.047c.418.063 1.11.13 2.308.13 2.641 0 4.442-.673 4.442-2.38 0-1.402-1.621-2.437-4.38-2.437H2.61Zm0-6.113h2.16c2.852 0 5.219-.82 5.219-2.809C9.989 2.01 7.5 1.294 4.8 1.294c-.93 0-1.68.024-2.191.09zm0 0" transform="matrix(1 0 0 -1 438.57 214.439)"/><path style="fill:none;stroke:#b8e80c;stroke-width:.5;stroke-linecap:butt;stroke-linejoin:miter;stroke-miterlimit:10;stroke-opacity:1" d="M-.001.001v-14.558h2.609V0Zm0 0" transform="matrix(1 0 0 -1 460.83 199.923)"/><path style="fill:none;stroke:#b8e80c;stroke-width:.5;stroke-linecap:butt;stroke-linejoin:miter;stroke-miterlimit:10;stroke-opacity:1" d="M0 0h-7.86v4.6H.45V6.18H-10.47V-8.38H.9v1.575h-8.76v5.25H0zm0 0" transform="matrix(1 0 0 -1 484.47 206.101)"/><path style="fill:none;stroke:#b8e80c;stroke-width:.5;stroke-linecap:butt;stroke-linejoin:miter;stroke-miterlimit:10;stroke-opacity:1" d="M0 .001v6.22c0 2.42-.06 4.17-.211 6.007l.09.02c1.019-1.579 2.37-3.243 3.78-4.86L10.083.001h2.636V14.56h-2.457V8.466c0-2.265.059-4.039.297-5.98l-.058-.024c-.961 1.492-2.13 3.024-3.63 4.73L.39 14.56H-2.46V0Zm0 0" transform="matrix(1 0 0 -1 497.22 214.482)"/><path style="fill:none;stroke:#b8e80c;stroke-width:.5;stroke-linecap:butt;stroke-linejoin:miter;stroke-miterlimit:10;stroke-opacity:1" d="M.002.001h2.636v12.957h6.184v1.602H-6.151v-1.602H.001Zm0 0" transform="matrix(1 0 0 -1 524.339 214.482)"/><path style="fill:none;stroke:#b8e80c;stroke-width:.5;stroke-linecap:butt;stroke-linejoin:miter;stroke-miterlimit:10;stroke-opacity:1" d="M0 0h-7.859v4.6H.45V6.18h-10.918V-8.38H.899v1.575H-7.86v5.25h7.86Zm0 0" transform="matrix(1 0 0 -1 551.879 206.101)"/></svg>